<svg xmlns="http://www.w3.org/2000/svg" viewBox="0 0 96 96">
  <rect width="96" height="96" rx="18" fill="#fff0e6"/>
  <ellipse cx="48" cy="84" rx="28" ry="7" fill="#c58f77"/>
  <path d="M22 72c4-18 48-18 52 0v10H22z" fill="#ca3328"/>
  <circle cx="48" cy="39" r="18" fill="#f0b17d"/>
  <path d="M29 34c4-20 31-26 39 0-12-7-27-7-39 0z" fill="#cf2d25"/>
  <path d="M42 18c10 8 3 16 13 25-18-3-23-16-13-25z" fill="#ff8c1a"/>
  <path d="M38 52c6 4 14 4 20 0" stroke="#642a20" stroke-width="4" fill="none" stroke-linecap="round"/>
  <path d="M72 55c8 7 5 17-5 20-10-7-3-16 5-20z" fill="#ffcb05"/>
</svg>
