<svg xmlns="http://www.w3.org/2000/svg" viewBox="0 0 96 96">
  <rect width="96" height="96" rx="18" fill="#fff0f6"/>
  <ellipse cx="48" cy="84" rx="28" ry="7" fill="#d5a0b9"/>
  <path d="M22 72c5-19 47-19 52 0v10H22z" fill="#f5a3c7"/>
  <circle cx="48" cy="38" r="18" fill="#ffd1b0"/>
  <path d="M27 32c8-18 34-18 42 0v7H27z" fill="#ffffff"/>
  <path d="M45 25h6v18h-6z" fill="#ef4444"/>
  <path d="M39 31h18v6H39z" fill="#ef4444"/>
  <path d="M37 51c6 5 16 5 22 0" stroke="#8b3f56" stroke-width="4" fill="none" stroke-linecap="round"/>
  <path d="M68 54c9-8 21 4 5 16-16-12-4-24 5-16z" fill="#ef5da8"/>
</svg>
