<svg xmlns="http://www.w3.org/2000/svg" viewBox="0 0 96 96">
  <rect width="96" height="96" rx="18" fill="#e8f8ff"/>
  <path d="M0 70c12-7 24-7 36 0s24 7 36 0 18-7 24-3v29H0z" fill="#84ccef"/>
  <path d="M8 79c13 5 25 5 37 0s25-5 43 2" stroke="#dff7ff" stroke-width="4" fill="none" stroke-linecap="round"/>
  <ellipse cx="48" cy="84" rx="29" ry="7" fill="#69aeca"/>
  <path d="M22 72c4-18 48-18 52 0v10H22z" fill="#2f7fba"/>
  <circle cx="48" cy="39" r="18" fill="#f0c095"/>
  <path d="M27 31c8-15 34-15 42 0v9H27z" fill="#1d6ea3"/>
  <path d="M24 34h48" stroke="#7fd6ff" stroke-width="6" stroke-linecap="round"/>
  <circle cx="41" cy="40" r="3" fill="#17233d"/>
  <circle cx="55" cy="40" r="3" fill="#17233d"/>
  <path d="M38 52c6 4 14 4 20 0" stroke="#65422d" stroke-width="4" fill="none" stroke-linecap="round"/>
  <path d="M70 53c9 7 7 17-4 22-10-8-4-18 4-22z" fill="#3fb5ff"/>
  <path d="M66 64h8" stroke="#e8f8ff" stroke-width="3" stroke-linecap="round"/>
</svg>
