<svg xmlns="http://www.w3.org/2000/svg" viewBox="0 0 96 96">
  <rect width="96" height="96" rx="18" fill="#eef9e8"/>
  <path d="M0 68c15-9 31-8 48 0s33 9 48 0v28H0z" fill="#a6d77d"/>
  <ellipse cx="48" cy="84" rx="29" ry="7" fill="#78a968"/>
  <path d="M22 72c5-19 47-19 52 0v10H22z" fill="#3f8f4e"/>
  <circle cx="48" cy="39" r="18" fill="#f1c59b"/>
  <path d="M29 34c6-19 34-19 39 0-15-6-25-6-39 0z" fill="#2f6b37"/>
  <path d="M27 31c10-12 32-12 42 0l-4 7c-12-5-22-5-34 0z" fill="#59ad59"/>
  <path d="M30 29c6-12 11-15 19-20 2 11-3 18-19 20z" fill="#78c850"/>
  <path d="M55 27c5-10 12-13 23-13-3 12-10 17-23 13z" fill="#7ed66d"/>
  <circle cx="41" cy="40" r="3" fill="#17233d"/>
  <circle cx="55" cy="40" r="3" fill="#17233d"/>
  <path d="M39 52c6 4 12 4 18 0" stroke="#65422d" stroke-width="4" fill="none" stroke-linecap="round"/>
  <path d="M68 55c9 5 8 16-3 21-8-8-5-16 3-21z" fill="#7ac943"/>
</svg>
