<svg xmlns="http://www.w3.org/2000/svg" viewBox="0 0 96 96">
  <rect width="96" height="96" rx="18" fill="#fff0e6"/>
  <path d="M0 74l14-18 12 11 13-23 16 25 10-12 31 17v22H0z" fill="#6f3328"/>
  <path d="M39 68c6-10 8-20 2-31 17 11 10 25 23 36-13 6-21 5-25-5z" fill="#ff8c1a"/>
  <ellipse cx="48" cy="84" rx="29" ry="7" fill="#a65c41"/>
  <path d="M22 72c4-18 48-18 52 0v10H22z" fill="#b72d25"/>
  <circle cx="48" cy="39" r="18" fill="#efb07d"/>
  <path d="M29 34c4-20 32-25 39 0-13-7-27-7-39 0z" fill="#cf2d25"/>
  <path d="M42 18c10 8 3 16 13 25-18-3-23-16-13-25z" fill="#ffcb05"/>
  <circle cx="41" cy="40" r="3" fill="#17233d"/>
  <circle cx="55" cy="40" r="3" fill="#17233d"/>
  <path d="M38 52c6 4 14 4 20 0" stroke="#642a20" stroke-width="4" fill="none" stroke-linecap="round"/>
  <path d="M72 55c8 7 5 17-5 20-10-7-3-16 5-20z" fill="#ffcb05"/>
</svg>
