<svg xmlns="http://www.w3.org/2000/svg" viewBox="0 0 96 96">
  <rect width="96" height="96" rx="18" fill="#eef4f8"/>
  <path d="M0 72l15-22 10 13 15-28 17 30 11-15 28 22v24H0z" fill="#b7c4cd"/>
  <path d="M32 58l8-15 8 15zM59 63l9-12 10 12z" fill="#f7fbff"/>
  <ellipse cx="48" cy="84" rx="29" ry="7" fill="#8496a3"/>
  <path d="M22 72c5-19 47-19 52 0v10H22z" fill="#536d7a"/>
  <circle cx="48" cy="39" r="18" fill="#efc39b"/>
  <path d="M28 34c7-17 33-17 40 0-12-4-28-4-40 0z" fill="#405566"/>
  <path d="M23 30h50v8H23z" fill="#6f8796"/>
  <circle cx="41" cy="40" r="3" fill="#17233d"/>
  <circle cx="55" cy="40" r="3" fill="#17233d"/>
  <path d="M38 52c6 4 14 4 20 0" stroke="#65422d" stroke-width="4" fill="none" stroke-linecap="round"/>
  <path d="M68 54l9 7-9 8-9-8z" fill="#d8e5ed"/>
  <path d="M64 61h8" stroke="#536d7a" stroke-width="3" stroke-linecap="round"/>
</svg>
