<svg xmlns="http://www.w3.org/2000/svg" viewBox="0 0 96 96">
  <rect width="96" height="96" rx="18" fill="#eef9ec"/>
  <ellipse cx="48" cy="84" rx="28" ry="7" fill="#91b58b"/>
  <path d="M22 72c4-18 48-18 52 0v10H22z" fill="#3e8d4d"/>
  <circle cx="48" cy="39" r="18" fill="#efc099"/>
  <path d="M28 34c7-16 33-16 40 0-11-3-29-3-40 0z" fill="#355f31"/>
  <path d="M23 29h50v8H23z" fill="#4ca55a"/>
  <path d="M38 52c6 4 14 4 20 0" stroke="#65422d" stroke-width="4" fill="none" stroke-linecap="round"/>
  <path d="M70 49c8 6 6 17-4 22-10-7-5-17 4-22z" fill="#7ac943"/>
</svg>
